<?xml version="1.0" standalone="no"?>
<!DOCTYPE svg PUBLIC "-//W3C//DTD SVG 20010904//EN"
 "http://www.w3.org/TR/2001/REC-SVG-20010904/DTD/svg10.dtd">
<svg version="1.0" xmlns="http://www.w3.org/2000/svg"
 width="512.000000pt" height="512.000000pt" viewBox="0 0 512.000000 512.000000"
 preserveAspectRatio="xMidYMid meet">
<metadata>
Created by potrace 1.14, written by Peter Selinger 2001-2017
</metadata>
<g transform="translate(0.000000,512.000000) scale(0.100000,-0.100000)"
fill="#000000" stroke="none">
<path d="M2013 4955 c-111 -55 -203 -164 -241 -285 -7 -19 -26 -118 -43 -220
-32 -191 -80 -367 -104 -376 -7 -3 -48 2 -91 12 -106 23 -332 23 -431 1 -302
-68 -600 -256 -811 -512 -136 -165 -217 -322 -268 -524 -22 -87 -24 -112 -24
-357 0 -191 4 -281 14 -331 87 -410 343 -719 771 -933 152 -76 230 -104 343
-126 77 -15 285 -18 384 -5 54 7 57 6 63 -17 15 -59 128 -277 198 -379 247
-365 606 -623 1036 -744 l104 -29 395 0 c433 0 423 -1 622 67 376 128 712 391
937 735 108 164 213 409 243 564 12 63 10 822 -2 859 -4 11 -16 49 -26 85 -66
218 -187 444 -332 620 -203 246 -473 443 -767 559 -455 180 -1003 166 -1436
-37 l-83 -39 -17 23 c-17 23 -16 23 30 55 178 122 299 282 353 469 30 104 38
304 16 420 -40 217 -187 390 -392 460 -47 17 -84 20 -214 20 l-157 0 -70 -35z"/>
</g>
</svg>
