<svg width="187" height="271" viewBox="0 0 187 271" fill="none" xmlns="http://www.w3.org/2000/svg">
  <path fill-rule="evenodd" clip-rule="evenodd"
    d="M12 0C5.37259 0 0 5.37259 0 12V259C0 265.627 5.37259 271 12 271H175C181.627 271 187 265.627 187 259V12C187 5.37258 181.627 0 175 0H12ZM62 28C62 25.2386 64.2386 23 67 23H120C122.761 23 125 25.2386 125 28C125 30.7614 122.761 33 120 33H67C64.2386 33 62 30.7614 62 28ZM22 50.5C22 48.567 23.567 47 25.5 47H161.5C163.433 47 165 48.567 165 50.5C165 52.433 163.433 54 161.5 54H25.5C23.567 54 22 52.433 22 50.5ZM67.5 60C65.567 60 64 61.567 64 63.5C64 65.433 65.567 67 67.5 67H161.5C163.433 67 165 65.433 165 63.5C165 61.567 163.433 60 161.5 60H67.5ZM22 73.5C22 71.567 23.567 70 25.5 70H161.5C163.433 70 165 71.567 165 73.5C165 75.433 163.433 77 161.5 77H25.5C23.567 77 22 75.433 22 73.5ZM25.5 80C23.567 80 22 81.567 22 83.5C22 85.433 23.567 87 25.5 87H161.5C163.433 87 165 85.433 165 83.5C165 81.567 163.433 80 161.5 80H25.5ZM64 96.5C64 94.567 65.567 93 67.5 93H161.5C163.433 93 165 94.567 165 96.5C165 98.433 163.433 100 161.5 100H67.5C65.567 100 64 98.433 64 96.5ZM25.5 103C23.567 103 22 104.567 22 106.5C22 108.433 23.567 110 25.5 110H161.5C163.433 110 165 108.433 165 106.5C165 104.567 163.433 103 161.5 103H25.5ZM22 116.5C22 114.567 23.567 113 25.5 113H161.5C163.433 113 165 114.567 165 116.5C165 118.433 163.433 120 161.5 120H25.5C23.567 120 22 118.433 22 116.5ZM40.5 136C38.567 136 37 137.567 37 139.5C37 141.433 38.567 143 40.5 143H161.5C163.433 143 165 141.433 165 139.5C165 137.567 163.433 136 161.5 136H40.5ZM37 149.5C37 147.567 38.567 146 40.5 146H161.5C163.433 146 165 147.567 165 149.5C165 151.433 163.433 153 161.5 153H40.5C38.567 153 37 151.433 37 149.5ZM40.5 156C38.567 156 37 157.567 37 159.5C37 161.433 38.567 163 40.5 163H161.5C163.433 163 165 161.433 165 159.5C165 157.567 163.433 156 161.5 156H40.5ZM64 129.5C64 127.567 65.567 126 67.5 126H161.5C163.433 126 165 127.567 165 129.5C165 131.433 163.433 133 161.5 133H67.5C65.567 133 64 131.433 64 129.5ZM22 63.5C22 61.567 23.567 60 25.5 60H58.5C60.433 60 62 61.567 62 63.5C62 65.433 60.433 67 58.5 67H25.5C23.567 67 22 65.433 22 63.5ZM22 96.5C22 94.567 23.567 93 25.5 93H58.5C60.433 93 62 94.567 62 96.5C62 98.433 60.433 100 58.5 100H25.5C23.567 100 22 98.433 22 96.5ZM22 129.5C22 127.567 23.567 126 25.5 126H58.5C60.433 126 62 127.567 62 129.5C62 131.433 60.433 133 58.5 133H25.5C23.567 133 22 131.433 22 129.5Z"
    fill="white" />
</svg>