<svg width="209" height="285" viewBox="0 0 209 285" fill="none" xmlns="http://www.w3.org/2000/svg">
  <path
    d="M133.687 202.049C143.449 201.22 150.69 192.635 149.861 182.873C149.032 173.112 140.447 165.871 130.686 166.7C120.924 167.529 113.683 176.114 114.512 185.875C115.341 195.637 123.926 202.878 133.687 202.049Z"
    fill="white" />
  <path
    d="M64.4409 235.356C71.5793 236.674 78.4341 231.955 79.7516 224.817C81.0692 217.678 76.3504 210.823 69.2121 209.506C62.0737 208.188 55.2189 212.907 53.9014 220.045C52.5838 227.184 57.3025 234.039 64.4409 235.356Z"
    fill="white" />
  <path fill-rule="evenodd" clip-rule="evenodd"
    d="M35.9637 0.107673C29.3646 -0.504067 23.519 4.34966 22.9073 10.9488L0.107673 256.894C-0.504077 263.493 4.34965 269.339 10.9488 269.951L172.257 284.904C178.856 285.516 184.702 280.662 185.314 274.063L208.113 28.1177C208.725 21.5186 203.871 15.673 197.272 15.0613L35.9637 0.107673ZM126.391 214.783C126.09 211.232 121.646 209.818 119.348 212.542L112.891 220.197C111.467 221.886 108.943 222.1 107.255 220.676L100.609 215.07C98.9199 213.646 98.7056 211.122 100.13 209.434L106.587 201.779C108.884 199.055 106.741 194.912 103.191 195.214L93.2121 196.061C91.0109 196.248 89.0749 194.615 88.888 192.414L88.1523 183.751C87.9654 181.549 89.5983 179.613 91.7995 179.426L101.778 178.579C105.329 178.278 106.743 173.834 104.018 171.536L96.3635 165.079C94.6748 163.655 94.4605 161.131 95.8848 159.443L101.491 152.796C102.915 151.108 105.439 150.893 107.127 152.318L114.782 158.774C117.506 161.072 121.648 158.929 121.347 155.378L120.5 145.4C120.313 143.199 121.946 141.263 124.147 141.076L132.81 140.34C135.011 140.153 136.947 141.786 137.134 143.987L137.982 153.966C138.283 157.517 142.727 158.93 145.025 156.206L151.482 148.551C152.906 146.863 155.43 146.648 157.118 148.073L163.764 153.679C165.453 155.103 165.667 157.626 164.243 159.315L157.786 166.97C155.489 169.694 157.632 173.836 161.182 173.535L171.161 172.687C173.362 172.5 175.298 174.133 175.485 176.335L176.221 184.998C176.408 187.199 174.775 189.135 172.573 189.322L162.595 190.17C159.044 190.471 157.63 194.915 160.354 197.213L168.009 203.669C169.698 205.094 169.912 207.617 168.488 209.306L162.882 215.952C161.458 217.641 158.934 217.855 157.246 216.431L149.591 209.974C146.867 207.677 142.725 209.819 143.026 213.37L143.873 223.349C144.06 225.55 142.427 227.486 140.226 227.673L131.563 228.409C129.362 228.595 127.426 226.963 127.239 224.761L126.391 214.783ZM56.2811 245.489C56.9279 241.985 53.0148 239.448 50.0794 241.468L46.881 243.67C45.0614 244.923 42.5708 244.463 41.3181 242.643L38.8401 239.043C37.5875 237.224 38.0472 234.733 39.8668 233.48L43.0652 231.279C46.0006 229.258 45.0276 224.697 41.5231 224.05L37.7047 223.346C35.5323 222.945 34.0962 220.858 34.4972 218.686L35.2904 214.388C35.6914 212.216 37.7775 210.78 39.95 211.181L43.7684 211.886C47.2728 212.532 49.8099 208.619 47.7893 205.684L45.5876 202.486C44.3349 200.666 44.7946 198.175 46.6143 196.923L50.2141 194.445C52.0338 193.192 54.5244 193.652 55.777 195.471L57.9787 198.67C59.9994 201.605 64.5603 200.632 65.2071 197.128L65.9119 193.309C66.3128 191.137 68.399 189.701 70.5714 190.102L74.8692 190.895C77.0416 191.296 78.4777 193.382 78.0767 195.554L77.3719 199.373C76.7251 202.877 80.6382 205.414 83.5736 203.394L86.7719 201.192C88.5916 199.939 91.0822 200.399 92.3348 202.219L94.8129 205.819C96.0655 207.638 95.6058 210.129 93.7861 211.382L90.5878 213.583C87.6524 215.604 88.6254 220.165 92.1298 220.812L95.9482 221.516C98.1207 221.917 99.5568 224.003 99.1558 226.176L98.3626 230.474C97.9616 232.646 95.8754 234.082 93.703 233.681L89.8846 232.976C86.3801 232.33 83.8431 236.243 85.8637 239.178L88.0654 242.376C89.318 244.196 88.8584 246.687 87.0387 247.939L83.4388 250.417C81.6192 251.67 79.1286 251.21 77.876 249.391L75.6743 246.192C73.6536 243.257 69.0927 244.23 68.4459 247.734L67.7411 251.553C67.3402 253.725 65.254 255.161 63.0815 254.76L58.7838 253.967C56.6114 253.566 55.1753 251.48 55.5763 249.307L56.2811 245.489Z"
    fill="white" />
</svg>