<svg width="263" height="271" viewBox="0 0 263 271" fill="none" xmlns="http://www.w3.org/2000/svg">
  <mask id="path-1-inside-1_1_38" fill="white">
    <path fill-rule="evenodd" clip-rule="evenodd"
      d="M12 0C5.37258 0 0 5.37259 0 12V259C0 265.627 5.37259 271 12 271H219C225.627 271 231 265.627 231 259V239.941L180.3 192.223C168.491 199.683 154.5 204 139.5 204C108.091 204 81.1038 185.072 69.3219 158H38C34.6863 158 32 155.314 32 152C32 148.686 34.6863 146 38 146H65.252C64.6823 143.706 64.2161 141.371 63.8587 139H38C34.6863 139 32 136.314 32 133C32 129.686 34.6863 127 38 127H63.0016C63.0167 124.64 63.1387 122.305 63.363 120H38C34.6863 120 32 117.314 32 114C32 110.686 34.6863 108 38 108H65.5076C66.1333 105.619 66.8709 103.284 67.7143 101H38C34.6863 101 32 98.3137 32 95C32 91.6863 34.6863 89 38 89H73.3796C74.7924 86.5789 76.3343 84.2424 77.996 82H38C34.6863 82 32 79.3137 32 76C32 72.6863 34.6863 70 38 70H88C88.3249 70 88.6438 70.0258 88.9547 70.0755C91.8943 67.4861 95.0342 65.1188 98.3484 63H38C34.6863 63 32 60.3137 32 57C32 53.6863 34.6863 51 38 51H124C125.208 51 126.333 51.3571 127.275 51.9716C131.255 51.3322 135.339 51 139.5 51C140.153 51 140.805 51.0082 141.454 51.0245C141.634 51.0083 141.816 51 142 51H193C196.314 51 199 53.6863 199 57C199 60.3137 196.314 63 193 63H180.652C183.934 65.0982 187.045 67.4401 189.959 70H193C196.314 70 199 72.6863 199 76C199 76.9542 198.777 77.8564 198.381 78.6574C209.384 91.9073 216 108.931 216 127.5C216 146.053 209.395 163.064 198.409 176.309L231 206.983V12C231 5.37258 225.627 0 219 0H12ZM38 32C34.6863 32 32 34.6863 32 38C32 41.3137 34.6863 44 38 44H88C91.3137 44 94 41.3137 94 38C94 34.6863 91.3137 32 88 32H38ZM107 32C103.686 32 101 34.6863 101 38C101 41.3137 103.686 44 107 44H193C196.314 44 199 41.3137 199 38C199 34.6863 196.314 32 193 32H107ZM204 127.5C204 163.122 175.122 192 139.5 192C103.878 192 75 163.122 75 127.5C75 91.8776 103.878 63 139.5 63C175.122 63 204 91.8776 204 127.5ZM153 90L142.761 146.313L130.955 144.167L141.194 87.8534L153 90ZM139 167L141.299 154.358L129.492 152.212L127.194 164.853L139 167Z" />
  </mask>
  <path fill-rule="evenodd" clip-rule="evenodd"
    d="M12 0C5.37258 0 0 5.37259 0 12V259C0 265.627 5.37259 271 12 271H219C225.627 271 231 265.627 231 259V239.941L180.3 192.223C168.491 199.683 154.5 204 139.5 204C108.091 204 81.1038 185.072 69.3219 158H38C34.6863 158 32 155.314 32 152C32 148.686 34.6863 146 38 146H65.252C64.6823 143.706 64.2161 141.371 63.8587 139H38C34.6863 139 32 136.314 32 133C32 129.686 34.6863 127 38 127H63.0016C63.0167 124.64 63.1387 122.305 63.363 120H38C34.6863 120 32 117.314 32 114C32 110.686 34.6863 108 38 108H65.5076C66.1333 105.619 66.8709 103.284 67.7143 101H38C34.6863 101 32 98.3137 32 95C32 91.6863 34.6863 89 38 89H73.3796C74.7924 86.5789 76.3343 84.2424 77.996 82H38C34.6863 82 32 79.3137 32 76C32 72.6863 34.6863 70 38 70H88C88.3249 70 88.6438 70.0258 88.9547 70.0755C91.8943 67.4861 95.0342 65.1188 98.3484 63H38C34.6863 63 32 60.3137 32 57C32 53.6863 34.6863 51 38 51H124C125.208 51 126.333 51.3571 127.275 51.9716C131.255 51.3322 135.339 51 139.5 51C140.153 51 140.805 51.0082 141.454 51.0245C141.634 51.0083 141.816 51 142 51H193C196.314 51 199 53.6863 199 57C199 60.3137 196.314 63 193 63H180.652C183.934 65.0982 187.045 67.4401 189.959 70H193C196.314 70 199 72.6863 199 76C199 76.9542 198.777 77.8564 198.381 78.6574C209.384 91.9073 216 108.931 216 127.5C216 146.053 209.395 163.064 198.409 176.309L231 206.983V12C231 5.37258 225.627 0 219 0H12ZM38 32C34.6863 32 32 34.6863 32 38C32 41.3137 34.6863 44 38 44H88C91.3137 44 94 41.3137 94 38C94 34.6863 91.3137 32 88 32H38ZM107 32C103.686 32 101 34.6863 101 38C101 41.3137 103.686 44 107 44H193C196.314 44 199 41.3137 199 38C199 34.6863 196.314 32 193 32H107ZM204 127.5C204 163.122 175.122 192 139.5 192C103.878 192 75 163.122 75 127.5C75 91.8776 103.878 63 139.5 63C175.122 63 204 91.8776 204 127.5ZM153 90L142.761 146.313L130.955 144.167L141.194 87.8534L153 90ZM139 167L141.299 154.358L129.492 152.212L127.194 164.853L139 167Z"
    fill="white" />
  <path
    d="M231 239.941H243V234.756L239.224 231.203L231 239.941ZM180.3 192.223L188.524 183.485L181.753 177.112L173.891 182.078L180.3 192.223ZM69.3219 158L80.325 153.211L77.1865 146H69.3219V158ZM65.252 146V158H80.5968L76.8983 143.108L65.252 146ZM63.8587 139L75.7246 137.211L74.1851 127H63.8587V139ZM63.0016 127V139H74.925L75.0014 127.077L63.0016 127ZM63.363 120L75.3066 121.162L76.5873 108H63.363V120ZM65.5076 108V120H74.7612L77.1135 111.05L65.5076 108ZM67.7143 101L78.9713 105.157L84.9378 89H67.7143V101ZM73.3796 89V101H80.2709L83.7441 95.048L73.3796 89ZM77.996 82L87.6374 89.1444L101.824 70H77.996V82ZM88.9547 70.0755L87.06 81.925L92.6437 82.8178L96.8868 79.0801L88.9547 70.0755ZM98.3484 63L104.812 73.1103L139.395 51L98.3484 51V63ZM127.275 51.9716L120.717 62.0211L124.6 64.555L129.178 63.8197L127.275 51.9716ZM141.454 51.0245L141.154 63.0207L141.844 63.038L142.531 62.976L141.454 51.0245ZM180.652 63V51H139.605L174.188 73.1103L180.652 63ZM189.959 70L182.041 79.0164L185.438 82H189.959V70ZM198.381 78.6574L187.626 73.3356L184.167 80.3248L189.149 86.3239L198.381 78.6574ZM198.409 176.309L189.173 168.648L181.977 177.323L190.184 185.047L198.409 176.309ZM231 206.983L222.776 215.722L243 234.756V206.983H231ZM142.761 146.313L140.615 158.12L152.421 160.266L154.568 148.46L142.761 146.313ZM153 90L164.806 92.1466L166.953 80.3402L155.147 78.1936L153 90ZM130.955 144.167L119.148 142.02L117.002 153.827L128.808 155.973L130.955 144.167ZM141.194 87.8534L143.34 76.0469L131.534 73.9003L129.387 85.7068L141.194 87.8534ZM141.299 154.358L153.105 156.505L155.252 144.698L143.445 142.552L141.299 154.358ZM139 167L136.853 178.806L148.66 180.953L150.806 169.147L139 167ZM129.492 152.212L131.639 140.405L119.832 138.259L117.686 150.065L129.492 152.212ZM127.194 164.853L115.387 162.707L113.241 174.513L125.047 176.66L127.194 164.853ZM12 12V12V-12C-1.25484 -12 -12 -1.25482 -12 12H12ZM12 259V12H-12V259H12ZM12 259H12H-12C-12 272.255 -1.25483 283 12 283V259ZM219 259H12V283H219V259ZM219 259V283C232.255 283 243 272.255 243 259H219ZM219 239.941V259H243V239.941H219ZM172.076 200.962L222.776 248.68L239.224 231.203L188.524 183.485L172.076 200.962ZM139.5 216C156.834 216 173.039 211.004 186.709 202.369L173.891 182.078C163.944 188.362 152.165 192 139.5 192V216ZM58.3187 162.789C71.938 194.082 103.146 216 139.5 216V192C113.037 192 90.2696 176.061 80.325 153.211L58.3187 162.789ZM38 170H69.3219V146H38V170ZM20 152C20 161.941 28.0589 170 38 170V146C41.3137 146 44 148.686 44 152H20ZM38 134C28.0589 134 20 142.059 20 152H44C44 155.314 41.3137 158 38 158V134ZM65.252 134H38V158H65.252V134ZM51.9928 140.789C52.4063 143.532 52.946 146.236 53.6058 148.892L76.8983 143.108C76.4185 141.176 76.0258 139.209 75.7246 137.211L51.9928 140.789ZM38 151H63.8587V127H38V151ZM20 133C20 142.941 28.0589 151 38 151V127C41.3137 127 44 129.686 44 133H20ZM38 115C28.0589 115 20 123.059 20 133H44C44 136.314 41.3137 139 38 139V115ZM63.0016 115H38V139H63.0016V115ZM51.4194 118.838C51.1601 121.503 51.0193 124.2 51.0018 126.923L75.0014 127.077C75.0141 125.08 75.1173 123.107 75.3066 121.162L51.4194 118.838ZM38 132H63.363V108H38V132ZM20 114C20 123.941 28.0589 132 38 132V108C41.3137 108 44 110.686 44 114H20ZM38 96C28.0589 96 20 104.059 20 114H44C44 117.314 41.3137 120 38 120V96ZM65.5076 96H38V120H65.5076V96ZM56.4574 96.843C55.4806 99.488 54.6264 102.193 53.9018 104.95L77.1135 111.05C77.6402 109.046 78.2612 107.08 78.9713 105.157L56.4574 96.843ZM38 113H67.7143V89H38V113ZM20 95C20 104.941 28.0589 113 38 113V89C41.3137 89 44 91.6863 44 95H20ZM38 77C28.0589 77 20 85.0589 20 95H44C44 98.3137 41.3137 101 38 101V77ZM73.3796 77H38V101H73.3796V77ZM68.3545 74.8556C66.4332 77.4485 64.6497 80.1509 63.0151 82.952L83.7441 95.048C84.935 93.007 86.2354 91.0364 87.6374 89.1444L68.3545 74.8556ZM38 94H77.996V70H38V94ZM20 76C20 85.9411 28.0589 94 38 94V70C41.3137 70 44 72.6863 44 76H20ZM38 58C28.0589 58 20 66.0589 20 76H44C44 79.3137 41.3137 82 38 82V58ZM88 58H38V82H88V58ZM90.8494 58.2261C89.9142 58.0765 88.9618 58 88 58V82C87.688 82 87.3734 81.9751 87.06 81.925L90.8494 58.2261ZM91.8845 52.8897C88.0511 55.3405 84.4205 58.0778 81.0226 61.071L96.8868 79.0801C99.368 76.8944 102.017 74.8972 104.812 73.1103L91.8845 52.8897ZM38 75H98.3484V51H38V75ZM20 57C20 66.9411 28.0589 75 38 75V51C41.3137 51 44 53.6863 44 57H20ZM38 39C28.0589 39 20 47.0589 20 57H44C44 60.3137 41.3137 63 38 63V39ZM124 39H38V63H124V39ZM133.833 41.922C131 40.0736 127.607 39 124 39V63C122.809 63 121.666 62.6407 120.717 62.0211L133.833 41.922ZM139.5 39C134.699 39 129.979 39.3834 125.372 40.1234L129.178 63.8197C132.531 63.2811 135.979 63 139.5 63V39ZM141.755 39.0282C141.005 39.0095 140.254 39 139.5 39V63C140.053 63 140.604 63.0069 141.154 63.0207L141.755 39.0282ZM142 39C141.456 39 140.914 39.0245 140.377 39.0729L142.531 62.976C142.354 62.9921 142.176 63 142 63V39ZM193 39H142V63H193V39ZM211 57C211 47.0589 202.941 39 193 39V63C189.686 63 187 60.3137 187 57H211ZM193 75C202.941 75 211 66.9411 211 57H187C187 53.6863 189.686 51 193 51V75ZM180.652 75H193V51H180.652V75ZM197.878 60.9836C194.509 58.0246 190.912 55.3167 187.116 52.8897L174.188 73.1103C176.955 74.8798 179.58 76.8556 182.041 79.0164L197.878 60.9836ZM193 58H189.959V82H193V58ZM211 76C211 66.0589 202.941 58 193 58V82C189.686 82 187 79.3137 187 76H211ZM209.136 83.9793C210.333 81.5606 211 78.8411 211 76H187C187 75.0674 187.221 74.1522 187.626 73.3356L209.136 83.9793ZM228 127.5C228 106.029 220.338 86.3152 207.613 70.991L189.149 86.3239C198.43 97.4995 204 111.833 204 127.5H228ZM207.645 183.97C220.351 168.652 228 148.953 228 127.5H204C204 143.153 198.439 157.476 189.173 168.648L207.645 183.97ZM239.224 198.245L206.633 167.571L190.184 185.047L222.776 215.722L239.224 198.245ZM219 12V206.983H243V12H219ZM219 12H243C243 -1.25484 232.255 -12 219 -12V12ZM12 12H219V-12H12V12ZM44 38C44 41.3137 41.3137 44 38 44V20C28.0589 20 20 28.0589 20 38H44ZM38 32C41.3137 32 44 34.6863 44 38H20C20 47.9411 28.0589 56 38 56V32ZM88 32H38V56H88V32ZM82 38C82 34.6863 84.6863 32 88 32V56C97.9411 56 106 47.9411 106 38H82ZM88 44C84.6863 44 82 41.3137 82 38H106C106 28.0589 97.9411 20 88 20V44ZM38 44H88V20H38V44ZM113 38C113 41.3137 110.314 44 107 44V20C97.0589 20 89 28.0589 89 38H113ZM107 32C110.314 32 113 34.6863 113 38H89C89 47.9411 97.0589 56 107 56V32ZM193 32H107V56H193V32ZM187 38C187 34.6863 189.686 32 193 32V56C202.941 56 211 47.9411 211 38H187ZM193 44C189.686 44 187 41.3137 187 38H211C211 28.0589 202.941 20 193 20V44ZM107 44H193V20H107V44ZM139.5 204C181.75 204 216 169.75 216 127.5H192C192 156.495 168.495 180 139.5 180V204ZM63 127.5C63 169.75 97.2502 204 139.5 204V180C110.505 180 87 156.495 87 127.5H63ZM139.5 51C97.2502 51 63 85.2502 63 127.5H87C87 98.505 110.505 75 139.5 75V51ZM216 127.5C216 85.2502 181.75 51 139.5 51V75C168.495 75 192 98.505 192 127.5H216ZM154.568 148.46L164.806 92.1466L141.194 87.8534L130.955 144.167L154.568 148.46ZM128.808 155.973L140.615 158.12L144.908 134.507L133.101 132.36L128.808 155.973ZM129.387 85.7068L119.148 142.02L142.761 146.313L153 90L129.387 85.7068ZM155.147 78.1936L143.34 76.0469L139.047 99.6598L150.853 101.806L155.147 78.1936ZM129.492 152.212L127.194 164.853L150.806 169.147L153.105 156.505L129.492 152.212ZM127.345 164.018L139.152 166.165L143.445 142.552L131.639 140.405L127.345 164.018ZM139 167L141.299 154.358L117.686 150.065L115.387 162.707L139 167ZM141.147 155.194L129.34 153.047L125.047 176.66L136.853 178.806L141.147 155.194Z"
    fill="white" mask="url(#path-1-inside-1_1_38)" />
</svg>