<svg width="148" height="107" viewBox="0 0 148 107" fill="none" xmlns="http://www.w3.org/2000/svg">
  <path
    d="M148 102.262C148 104.879 145.896 107 143.302 107H115.894C113.299 107 111.196 104.879 111.196 102.262V99.893C111.196 97.2763 113.299 95.155 115.894 95.155L129.989 95.155C132.584 95.155 134.688 93.0337 134.688 90.417L134.688 16.583C134.688 13.9663 132.584 11.845 129.989 11.845L115.894 11.845C113.299 11.845 111.196 9.72374 111.196 7.10701V4.73801C111.196 2.12128 113.299 3.09123e-07 115.894 1.79491e-07L143.302 0C145.896 2.28762e-07 148 2.12128 148 4.73801L148 102.262Z"
    fill="white" />
  <path
    d="M0 4.73801C0 2.12128 2.10355 4.1421e-07 4.69841 4.1421e-07H32.1058C34.7007 4.1421e-07 36.8042 2.12128 36.8042 4.73801V7.10701C36.8042 9.72374 34.7007 11.845 32.1058 11.845H18.0106C15.4157 11.845 13.3122 13.9663 13.3122 16.583V90.417C13.3122 93.0337 15.4157 95.155 18.0106 95.155H32.1058C34.7007 95.155 36.8042 97.2763 36.8042 99.893V102.262C36.8042 104.879 34.7007 107 32.1058 107H4.69841C2.10355 107 0 104.879 0 102.262V4.73801Z"
    fill="white" />
  <path
    d="M74 67.1218C81.3521 67.1218 87.3122 61.1115 87.3122 53.6974C87.3122 46.2834 81.3521 40.2731 74 40.2731C66.6479 40.2731 60.6878 46.2834 60.6878 53.6974C60.6878 61.1115 66.6479 67.1218 74 67.1218Z"
    fill="white" />
  <path
    d="M53.2487 53.6974C53.2487 61.1115 47.2886 67.1218 39.9365 67.1218C32.5844 67.1218 26.6243 61.1115 26.6243 53.6974C26.6243 46.2834 32.5844 40.2731 39.9365 40.2731C47.2886 40.2731 53.2487 46.2834 53.2487 53.6974Z"
    fill="white" />
  <path
    d="M108.063 67.1218C115.416 67.1218 121.376 61.1115 121.376 53.6974C121.376 46.2834 115.416 40.2731 108.063 40.2731C100.711 40.2731 94.7513 46.2834 94.7513 53.6974C94.7513 61.1115 100.711 67.1218 108.063 67.1218Z"
    fill="white" />
</svg>