<svg width="187" height="271" viewBox="0 0 187 271" fill="none" xmlns="http://www.w3.org/2000/svg">
  <path fill-rule="evenodd" clip-rule="evenodd"
    d="M12 0C5.37258 0 0 5.37259 0 12V259C0 265.627 5.37259 271 12 271H175C181.627 271 187 265.627 187 259V12C187 5.37258 181.627 0 175 0H12ZM60.5257 24.1087C60.5257 21.2872 62.8129 19 65.6344 19H121.366C124.187 19 126.474 21.2872 126.474 24.1087C126.474 26.9301 124.187 29.2174 121.366 29.2174H65.6344C62.8129 29.2174 60.5257 26.9301 60.5257 24.1087ZM19.6561 47.7945C19.6561 45.7425 21.3196 44.0791 23.3715 44.0791H163.628C165.68 44.0791 167.344 45.7425 167.344 47.7945C167.344 49.8464 165.68 51.5099 163.628 51.5099H23.3715C21.3196 51.5099 19.6561 49.8464 19.6561 47.7945ZM23.3715 56.1542C21.3196 56.1542 19.6561 57.8176 19.6561 59.8696C19.6561 61.9215 21.3196 63.585 23.3715 63.585H163.628C165.68 63.585 167.344 61.9215 167.344 59.8696C167.344 57.8176 165.68 56.1542 163.628 56.1542H23.3715ZM19.6561 98.8814C19.6561 96.8295 21.3196 95.166 23.3715 95.166H163.628C165.68 95.166 167.344 96.8295 167.344 98.8814C167.344 100.933 165.68 102.597 163.628 102.597H23.3715C21.3196 102.597 19.6561 100.933 19.6561 98.8814ZM23.3715 134.178C21.3196 134.178 19.6561 135.841 19.6561 137.893C19.6561 139.945 21.3196 141.609 23.3715 141.609H163.628C165.68 141.609 167.344 139.945 167.344 137.893C167.344 135.841 165.68 134.178 163.628 134.178H23.3715ZM19.6561 149.968C19.6561 147.916 21.3196 146.253 23.3715 146.253H163.628C165.68 146.253 167.344 147.916 167.344 149.968C167.344 152.02 165.68 153.684 163.628 153.684H23.3715C21.3196 153.684 19.6561 152.02 19.6561 149.968ZM40.0909 107.241C38.0389 107.241 36.3755 108.905 36.3755 110.957C36.3755 113.008 38.0389 114.672 40.0909 114.672H163.628C165.68 114.672 167.344 113.008 167.344 110.957C167.344 108.905 165.68 107.241 163.628 107.241H40.0909ZM57.7391 123.032C57.7391 120.98 59.4026 119.316 61.4545 119.316H163.628C165.68 119.316 167.344 120.98 167.344 123.032C167.344 125.084 165.68 126.747 163.628 126.747H61.4545C59.4026 126.747 57.7391 125.084 57.7391 123.032ZM40.0909 68.2292C38.0389 68.2292 36.3755 69.8927 36.3755 71.9447C36.3755 73.9966 38.0389 75.6601 40.0909 75.6601H163.628C165.68 75.6601 167.344 73.9966 167.344 71.9447C167.344 69.8927 165.68 68.2292 163.628 68.2292H40.0909ZM36.3755 84.0198C36.3755 81.9678 38.0389 80.3044 40.0909 80.3044H163.628C165.68 80.3044 167.344 81.9678 167.344 84.0198C167.344 86.0717 165.68 87.7352 163.628 87.7352H40.0909C38.0389 87.7352 36.3755 86.0717 36.3755 84.0198Z"
    fill="white" />
</svg>