<svg width="182" height="271" viewBox="0 0 182 271" fill="none" xmlns="http://www.w3.org/2000/svg">
  <path fill-rule="evenodd" clip-rule="evenodd"
    d="M12 0C5.37259 0 0 5.37259 0 12V259C0 265.627 5.37259 271 12 271H170C176.627 271 182 265.627 182 259V12C182 5.37258 176.627 0 170 0H12ZM29.0675 25.0357C29.0675 22.8069 30.8743 21 33.1032 21H147.897C150.126 21 151.933 22.8069 151.933 25.0357C151.933 27.2646 150.126 29.0714 147.897 29.0714H33.1032C30.8743 29.0714 29.0675 27.2646 29.0675 25.0357ZM46.1071 37.5913C46.1071 35.3624 47.914 33.5556 50.1429 33.5556H130.857C133.086 33.5556 134.893 35.3624 134.893 37.5913C134.893 39.8201 133.086 41.627 130.857 41.627H50.1429C47.914 41.627 46.1071 39.8201 46.1071 37.5913ZM26.8254 47.0079C24.5965 47.0079 22.7897 48.8148 22.7897 51.0437C22.7897 53.2725 24.5966 55.0794 26.8254 55.0794H154.175C156.403 55.0794 158.21 53.2725 158.21 51.0437C158.21 48.8148 156.403 47.0079 154.175 47.0079H26.8254ZM22.7897 102.611C22.7897 99.144 25.6003 96.3333 29.0675 96.3333H151.933C155.4 96.3333 158.21 99.144 158.21 102.611C158.21 106.078 155.4 108.889 151.933 108.889H29.0675C25.6003 108.889 22.7897 106.078 22.7897 102.611ZM39.8294 125.032C37.3529 125.032 35.3452 127.039 35.3452 129.516C35.3452 131.992 37.3529 134 39.8294 134H141.171C143.647 134 145.655 131.992 145.655 129.516C145.655 127.039 143.647 125.032 141.171 125.032H39.8294ZM90.9484 157.317C90.9484 155.336 92.5545 153.73 94.5357 153.73H154.623C156.604 153.73 158.21 155.336 158.21 157.317C158.21 159.299 156.604 160.905 154.623 160.905H94.5357C92.5545 160.905 90.9484 159.299 90.9484 157.317ZM94.5357 163.595C92.5545 163.595 90.9484 165.201 90.9484 167.183C90.9484 169.164 92.5545 170.77 94.5357 170.77H154.623C156.604 170.77 158.21 169.164 158.21 167.183C158.21 165.201 156.604 163.595 154.623 163.595H94.5357ZM90.9484 177.048C90.9484 175.066 92.5545 173.46 94.5357 173.46H154.623C156.604 173.46 158.21 175.066 158.21 177.048C158.21 179.029 156.604 180.635 154.623 180.635H94.5357C92.5545 180.635 90.9484 179.029 90.9484 177.048ZM94.5357 183.325C92.5545 183.325 90.9484 184.931 90.9484 186.913C90.9484 188.894 92.5545 190.5 94.5357 190.5H154.623C156.604 190.5 158.21 188.894 158.21 186.913C158.21 184.931 156.604 183.325 154.623 183.325H94.5357ZM90.9484 196.778C90.9484 194.797 92.5545 193.19 94.5357 193.19H154.623C156.604 193.19 158.21 194.797 158.21 196.778C158.21 198.759 156.604 200.365 154.623 200.365H94.5357C92.5545 200.365 90.9484 198.759 90.9484 196.778ZM94.5357 203.056C92.5545 203.056 90.9484 204.662 90.9484 206.643C90.9484 208.624 92.5545 210.23 94.5357 210.23H154.623C156.604 210.23 158.21 208.624 158.21 206.643C158.21 204.662 156.604 203.056 154.623 203.056H94.5357ZM69.4246 243.413C69.4246 241.431 71.0307 239.825 73.0119 239.825H107.988C109.969 239.825 111.575 241.431 111.575 243.413C111.575 245.394 109.969 247 107.988 247H73.0119C71.0307 247 69.4246 245.394 69.4246 243.413Z"
    fill="white" />
</svg>